<svg id="visual" viewBox="0 0 900 600" width="900" height="600" xmlns="http://www.w3.org/2000/svg" xmlns:xlink="http://www.w3.org/1999/xlink" version="1.1"><g stroke-width="1" stroke-linejoin="bevel"><path d="M518 283L543 155L396 121Z" fill="#6626fd" stroke="#6626fd"></path><path d="M396 121L348 283L518 283Z" fill="#6c4df7" stroke="#6c4df7"></path><path d="M717 180L578 0L543 155Z" fill="#6a47f9" stroke="#6a47f9"></path><path d="M543 155L578 0L396 121Z" fill="#715df2" stroke="#715df2"></path><path d="M578 0L329 0L396 121Z" fill="#6619fe" stroke="#6619fe"></path><path d="M396 121L215 273L348 283Z" fill="#6730fc" stroke="#6730fc"></path><path d="M163 176L215 273L396 121Z" fill="#6940fa" stroke="#6940fa"></path><path d="M215 273L325 421L348 283Z" fill="#6f58f4" stroke="#6f58f4"></path><path d="M348 283L325 421L518 283Z" fill="#6f58f4" stroke="#6f58f4"></path><path d="M518 283L717 180L543 155Z" fill="#6d52f6" stroke="#6d52f6"></path><path d="M735 285L717 180L518 283Z" fill="#6839fb" stroke="#6839fb"></path><path d="M569 477L735 285L518 283Z" fill="#6f58f4" stroke="#6f58f4"></path><path d="M329 0L163 176L396 121Z" fill="#6a47f9" stroke="#6a47f9"></path><path d="M325 421L569 477L518 283Z" fill="#6a47f9" stroke="#6a47f9"></path><path d="M900 161L716 0L717 180Z" fill="#6f58f4" stroke="#6f58f4"></path><path d="M717 180L716 0L578 0Z" fill="#6d52f6" stroke="#6d52f6"></path><path d="M329 0L182 0L163 176Z" fill="#6c4df7" stroke="#6c4df7"></path><path d="M215 273L188 479L325 421Z" fill="#6600ff" stroke="#6600ff"></path><path d="M325 421L400 600L569 477Z" fill="#6619fe" stroke="#6619fe"></path><path d="M0 326L188 479L215 273Z" fill="#6626fd" stroke="#6626fd"></path><path d="M188 479L400 600L325 421Z" fill="#715df2" stroke="#715df2"></path><path d="M569 477L747 490L735 285Z" fill="#6f58f4" stroke="#6f58f4"></path><path d="M683 600L747 490L569 477Z" fill="#6a47f9" stroke="#6a47f9"></path><path d="M400 600L566 600L569 477Z" fill="#6626fd" stroke="#6626fd"></path><path d="M900 271L900 161L717 180Z" fill="#6839fb" stroke="#6839fb"></path><path d="M900 271L717 180L735 285Z" fill="#6d52f6" stroke="#6d52f6"></path><path d="M900 409L900 271L735 285Z" fill="#6626fd" stroke="#6626fd"></path><path d="M0 0L0 186L163 176Z" fill="#6839fb" stroke="#6839fb"></path><path d="M163 176L0 326L215 273Z" fill="#6730fc" stroke="#6730fc"></path><path d="M566 600L683 600L569 477Z" fill="#6626fd" stroke="#6626fd"></path><path d="M747 490L900 409L735 285Z" fill="#6730fc" stroke="#6730fc"></path><path d="M0 186L0 326L163 176Z" fill="#6619fe" stroke="#6619fe"></path><path d="M0 600L176 600L188 479Z" fill="#6940fa" stroke="#6940fa"></path><path d="M188 479L176 600L400 600Z" fill="#6600ff" stroke="#6600ff"></path><path d="M900 161L900 0L716 0Z" fill="#6600ff" stroke="#6600ff"></path><path d="M900 600L900 409L747 490Z" fill="#6c4df7" stroke="#6c4df7"></path><path d="M182 0L0 0L163 176Z" fill="#6940fa" stroke="#6940fa"></path><path d="M0 326L0 455L188 479Z" fill="#6f58f4" stroke="#6f58f4"></path><path d="M683 600L900 600L747 490Z" fill="#6626fd" stroke="#6626fd"></path><path d="M0 455L0 600L188 479Z" fill="#6d52f6" stroke="#6d52f6"></path></g></svg>