<svg width="1440" height="1283" viewBox="0 0 1440 1283" fill="none" xmlns="http://www.w3.org/2000/svg">
<g clip-path="url(#clip0_13_114)">
<path d="M828.8 605.148L868.8 331.442L633.6 258.738L828.8 605.148Z" fill="#DDCEFB" stroke="#DDCEFB" stroke-linejoin="bevel"/>
<path d="M633.6 258.738L556.8 605.148H828.8L633.6 258.738Z" fill="#E1D9FE" stroke="#E1D9FE" stroke-linejoin="bevel"/>
<path d="M1147.2 384.9L924.8 0L868.8 331.442L1147.2 384.9Z" fill="#E0D7FD" stroke="#E0D7FD" stroke-linejoin="bevel"/>
<path d="M868.8 331.442L924.8 0L633.6 258.738L868.8 331.442Z" fill="#E4E0FF" stroke="#E4E0FF" stroke-linejoin="bevel"/>
<path d="M924.8 0H526.4L633.6 258.738L924.8 0Z" fill="#DCCBFA" stroke="#DCCBFA" stroke-linejoin="bevel"/>
<path d="M633.6 258.738L344 583.765L556.8 605.148L633.6 258.738Z" fill="#DED0FC" stroke="#DED0FC" stroke-linejoin="bevel"/>
<path d="M260.8 376.347L344 583.765L633.6 258.738L260.8 376.347Z" fill="#DFD5FD" stroke="#DFD5FD" stroke-linejoin="bevel"/>
<path d="M344 583.765L520 900.238L556.8 605.148L344 583.765Z" fill="#E3DEFF" stroke="#E3DEFF" stroke-linejoin="bevel"/>
<path d="M556.8 605.148L520 900.238L828.8 605.148H556.8Z" fill="#E3DEFF" stroke="#E3DEFF" stroke-linejoin="bevel"/>
<path d="M828.8 605.148L1147.2 384.9L868.8 331.442L828.8 605.148Z" fill="#E2DCFE" stroke="#E2DCFE" stroke-linejoin="bevel"/>
<path d="M1176 609.425L1147.2 384.9L828.8 605.148L1176 609.425Z" fill="#DED3FC" stroke="#DED3FC" stroke-linejoin="bevel"/>
<path d="M910.4 1019.98L1176 609.425L828.8 605.148L910.4 1019.98Z" fill="#E3DEFF" stroke="#E3DEFF" stroke-linejoin="bevel"/>
<path d="M526.4 0L260.8 376.347L633.6 258.738L526.4 0Z" fill="#E0D7FD" stroke="#E0D7FD" stroke-linejoin="bevel"/>
<path d="M520 900.238L910.4 1019.98L828.8 605.148L520 900.238Z" fill="#E0D7FD" stroke="#E0D7FD" stroke-linejoin="bevel"/>
<path d="M1440 344.272L1145.6 0L1147.2 384.9L1440 344.272Z" fill="#E3DEFF" stroke="#E3DEFF" stroke-linejoin="bevel"/>
<path d="M1147.2 384.9L1145.6 0H924.8L1147.2 384.9Z" fill="#E2DCFE" stroke="#E2DCFE" stroke-linejoin="bevel"/>
<path d="M526.4 0H291.2L260.8 376.347L526.4 0Z" fill="#E1D9FE" stroke="#E1D9FE" stroke-linejoin="bevel"/>
<path d="M344 583.765L300.8 1024.26L520 900.238L344 583.765Z" fill="#DCC9F9" stroke="#DCC9F9" stroke-linejoin="bevel"/>
<path d="M520 900.238L640 1283L910.4 1019.99L520 900.238Z" fill="#DCCBFA" stroke="#DCCBFA" stroke-linejoin="bevel"/>
<path d="M0 697.097L300.8 1024.26L344 583.765L0 697.097Z" fill="#DDCEFB" stroke="#DDCEFB" stroke-linejoin="bevel"/>
<path d="M300.8 1024.26L640 1283L520 900.238L300.8 1024.26Z" fill="#E4E0FF" stroke="#E4E0FF" stroke-linejoin="bevel"/>
<path d="M910.4 1019.98L1195.2 1047.78L1176 609.425L910.4 1019.98Z" fill="#E3DEFF" stroke="#E3DEFF" stroke-linejoin="bevel"/>
<path d="M1092.8 1283L1195.2 1047.78L910.4 1019.98L1092.8 1283Z" fill="#E0D7FD" stroke="#E0D7FD" stroke-linejoin="bevel"/>
<path d="M640 1283H905.6L910.4 1019.98L640 1283Z" fill="#DDCEFB" stroke="#DDCEFB" stroke-linejoin="bevel"/>
<path d="M1440 579.488V344.272L1147.2 384.9L1440 579.488Z" fill="#DED3FC" stroke="#DED3FC" stroke-linejoin="bevel"/>
<path d="M1440 579.488L1147.2 384.9L1176 609.425L1440 579.488Z" fill="#E2DCFE" stroke="#E2DCFE" stroke-linejoin="bevel"/>
<path d="M1440 874.578V579.488L1176 609.425L1440 874.578Z" fill="#DDCEFB" stroke="#DDCEFB" stroke-linejoin="bevel"/>
<path d="M0 0V397.73L260.8 376.347L0 0Z" fill="#DED3FC" stroke="#DED3FC" stroke-linejoin="bevel"/>
<path d="M260.8 376.347L0 697.097L344 583.765L260.8 376.347Z" fill="#DED0FC" stroke="#DED0FC" stroke-linejoin="bevel"/>
<path d="M905.6 1283H1092.8L910.4 1019.98L905.6 1283Z" fill="#DDCEFB" stroke="#DDCEFB" stroke-linejoin="bevel"/>
<path d="M1195.2 1047.78L1440 874.578L1176 609.425L1195.2 1047.78Z" fill="#DED0FC" stroke="#DED0FC" stroke-linejoin="bevel"/>
<path d="M0 397.73V697.097L260.8 376.347L0 397.73Z" fill="#DCCBFA" stroke="#DCCBFA" stroke-linejoin="bevel"/>
<path d="M0 1283H281.6L300.8 1024.26L0 1283Z" fill="#DFD5FD" stroke="#DFD5FD" stroke-linejoin="bevel"/>
<path d="M300.8 1024.26L281.6 1283H640L300.8 1024.26Z" fill="#DCC9F9" stroke="#DCC9F9" stroke-linejoin="bevel"/>
<path d="M1440 344.272V0H1145.6L1440 344.272Z" fill="#DCC9F9" stroke="#DCC9F9" stroke-linejoin="bevel"/>
<path d="M1440 1283V874.578L1195.2 1047.78L1440 1283Z" fill="#E1D9FE" stroke="#E1D9FE" stroke-linejoin="bevel"/>
<path d="M291.2 0H0L260.8 376.347L291.2 0Z" fill="#DFD5FD" stroke="#DFD5FD" stroke-linejoin="bevel"/>
<path d="M0 697.097V972.942L300.8 1024.26L0 697.097Z" fill="#E3DEFF" stroke="#E3DEFF" stroke-linejoin="bevel"/>
<path d="M1092.8 1283H1440L1195.2 1047.78L1092.8 1283Z" fill="#DDCEFB" stroke="#DDCEFB" stroke-linejoin="bevel"/>
<path d="M0 972.942V1283L300.8 1024.26L0 972.942Z" fill="#E2DCFE" stroke="#E2DCFE" stroke-linejoin="bevel"/>
</g>
<defs>
<clipPath id="clip0_13_114">
<rect width="1440" height="1283" fill="white"/>
</clipPath>
</defs>
</svg>
